<svg xmlns="http://www.w3.org/2000/svg" viewBox="0 0 835.64 501.09"><defs><style>.cls-1,.cls-2,.cls-3{fill:none;stroke:#fff;stroke-linecap:round;stroke-linejoin:round;stroke-width:3px;}.cls-2{stroke-dasharray:4 8;}.cls-3{stroke-dasharray:3.96 7.91;}</style></defs><g id="Layer_2" data-name="Layer 2"><g id="Layer_1-2" data-name="Layer 1"><path class="cls-1" d="M481.72,155.37A114.45,114.45,0,0,0,322.88,314.21"/><path class="cls-1" d="M353.79,345.15A114.44,114.44,0,0,0,512.66,186.27"/><line class="cls-1" x1="417.82" y1="176.88" x2="417.82" y2="104.88"/><line class="cls-1" x1="491.26" y1="250.31" x2="563.26" y2="250.31"/><line class="cls-1" x1="417.82" y1="323.75" x2="417.82" y2="395.75"/><line class="cls-1" x1="344.39" y1="250.31" x2="272.39" y2="250.31"/><path class="cls-1" d="M547.9,114.82l-1.45-1.38"/><path class="cls-2" d="M540.51,108.09a187.73,187.73,0,0,0-248.86,3.08"/><path class="cls-1" d="M288.72,113.9c-.49.45-1,.92-1.45,1.38"/><path class="cls-1" d="M289.06,386.75l1.46,1.37"/><path class="cls-3" d="M296.44,393.36A187.73,187.73,0,0,0,543.06,390"/><path class="cls-1" d="M546,387.32c.49-.45,1-.91,1.45-1.37"/><path class="cls-1" d="M278.05,386.75a195.42,195.42,0,0,1-.3-272.87"/><path class="cls-1" d="M288.74,113.88a187.71,187.71,0,0,0,.32,272.87"/><path class="cls-1" d="M546.59,386.75a187.71,187.71,0,0,0,.32-272.87"/><path class="cls-1" d="M557.89,113.88a195.42,195.42,0,0,1-.3,272.87"/><path class="cls-1" d="M158.6,417.61A308.76,308.76,0,0,1,158.4,83"/><path class="cls-1" d="M677.24,83a308.76,308.76,0,0,1-.2,334.59"/><path class="cls-1" d="M150.46,417.61A315.68,315.68,0,0,1,150.27,83"/><path class="cls-1" d="M685.37,83a315.68,315.68,0,0,1-.19,334.59"/><path class="cls-1" d="M677,1.5h74.71a416.42,416.42,0,0,1-.58,498.09H677"/><path class="cls-1" d="M158.6,499.59H84.47A416.42,416.42,0,0,1,83.89,1.5H158.6"/><polyline class="cls-1" points="672.15 269.72 691.71 250.16 673.01 231.47"/><polyline class="cls-1" points="662.37 269.72 681.93 250.16 663.23 231.47"/><polyline class="cls-1" points="652.59 269.72 672.15 250.16 653.45 231.47"/><polyline class="cls-1" points="642.81 269.72 662.37 250.16 643.67 231.47"/><polyline class="cls-1" points="163.46 269.72 143.9 250.16 162.59 231.47"/><polyline class="cls-1" points="173.24 269.72 153.68 250.16 172.37 231.47"/><polyline class="cls-1" points="183.02 269.72 163.46 250.16 182.15 231.47"/><polyline class="cls-1" points="192.8 269.72 173.24 250.16 191.93 231.47"/><line class="cls-1" x1="183.02" y1="473.66" x2="183.02" y2="462.95"/><line class="cls-1" x1="173.75" y1="473.66" x2="173.75" y2="470.98"/><line class="cls-1" x1="192.29" y1="454.24" x2="192.29" y2="473.66"/><line class="cls-1" x1="201.55" y1="446.88" x2="201.55" y2="473.66"/><line class="cls-1" x1="210.82" y1="441.52" x2="210.82" y2="473.66"/></g></g></svg>